<svg xmlns="http://www.w3.org/2000/svg" viewBox="0 0 127 38" width="127" height="38" fill="#333">
  <path d="M76.3 24.2c-6.2 4.6-15.2 7-23 7-10.9 0-20.6-4-28-10.7-.6-.5-.1-1.2.6-.8 8 4.7 17.8 7.4 28 7.4 6.9 0 14.4-1.4 21.3-4.4 1-.4 1.9.7.1 1.5z"/>
  <path d="M78.9 21.2c-.8-1-5.2-.5-7.2-.2-.6.1-.7-.4-.2-.8 3.5-2.5 9.3-1.8 10-.9.7.8-.2 6.6-3.5 9.4-.5.4-1 .2-.8-.4.7-1.8 2.4-5.9 1.7-7"/>
  <path d="M71.4 6.9v-2c0-.3.2-.5.5-.5h9.2c.3 0 .5.2.5.5v1.7c0 .3-.3.7-.7 1.3l-4.7 6.8c1.8-.1 3.6.2 5.2 1.1.4.2.4.5.5.7v2.1c0 .3-.3.6-.6.4-2.7-1.4-6.3-1.6-9.3.1-.3.2-.6-.1-.6-.4v-2c0-.3 0-.8.3-1.2l5.5-8h-4.8c-.3 0-.5-.2-.5-.5z"/>
  <path d="M26.2 21.2h-2.8c-.3 0-.5-.2-.5-.5v-14c0-.3.2-.5.5-.5h2.6c.3 0 .5.2.5.5v1.8h.1c.7-1.8 2-2.7 3.7-2.7 1.8 0 2.9.8 3.7 2.7.7-1.8 2.2-2.7 3.9-2.7 1.2 0 2.5.5 3.3 1.6.9 1.2.7 3 .7 4.5v9.1c0 .3-.2.5-.5.5h-2.8c-.3 0-.5-.2-.5-.5v-7.6c0-.6.1-2.1-.1-2.7-.2-1-.8-1.2-1.5-1.2-.6 0-1.3.4-1.5 1.1-.3.7-.2 1.9-.2 2.8v7.6c0 .3-.2.5-.5.5h-2.8c-.3 0-.5-.2-.5-.5v-7.6c0-1.6.3-3.9-1.7-3.9-2 0-1.9 2.3-1.9 3.9v7.6c-.1.3-.3.5-.6.5z"/>
  <path d="M56.1 6.1c4.1 0 6.4 3.6 6.4 8.1 0 4.4-2.5 7.8-6.4 7.8-4.1 0-6.3-3.6-6.3-8 0-4.5 2.3-7.9 6.3-7.9zm0 2.9c-2.1 0-2.2 2.9-2.2 4.6 0 1.8 0 5.6 2.2 5.6 2.2 0 2.3-3 2.3-4.9 0-1.2-.1-2.7-.4-3.8-.3-1-1-1.5-1.9-1.5z"/>
  <path d="M64.8 21.2h-2.8c-.3 0-.5-.2-.5-.5v-14c0-.3.2-.5.5-.5h2.6c.2 0 .4.2.5.4v2.1h.1c.8-2 1.9-2.9 3.8-2.9 1.2 0 2.5.5 3.3 1.7.7 1.2.7 3.1.7 4.4v9c0 .3-.2.5-.5.5h-2.8c-.3 0-.5-.2-.5-.5v-7.7c0-1.6.2-3.8-1.7-3.8-.6 0-1.2.4-1.5 1.1-.4.8-.4 1.7-.4 2.8v7.7c0 .3-.2.5-.5.5z"/>
  <path d="M89.8 6.1c4.1 0 6.4 3.6 6.4 8.1 0 4.4-2.5 7.8-6.4 7.8-4.1 0-6.3-3.6-6.3-8 0-4.5 2.3-7.9 6.3-7.9zm0 2.9c-2.1 0-2.2 2.9-2.2 4.6 0 1.8 0 5.6 2.2 5.6 2.2 0 2.3-3 2.3-4.9 0-1.2-.1-2.7-.4-3.8-.3-1-1-1.5-1.9-1.5z"/>
  <path d="M98.4 21.2h-2.8c-.3 0-.5-.2-.5-.5v-14c0-.3.2-.5.5-.5h2.6c.2 0 .4.2.5.4v2.1h.1c.8-2 1.9-2.9 3.8-2.9 1.2 0 2.5.5 3.3 1.7.7 1.2.7 3.1.7 4.4v9c0 .3-.2.5-.5.5h-2.8c-.3 0-.5-.2-.5-.5v-7.7c0-1.6.2-3.8-1.7-3.8-.6 0-1.2.4-1.5 1.1-.4.8-.4 1.7-.4 2.8v7.7c0 .3-.2.5-.5.5z"/>
  <path d="M124.6 12.9c0 2.3.1 4.2-1.1 6.2-1 1.7-2.5 2.7-4.3 2.7-2.4 0-3.8-1.8-3.8-4.5 0-5.3 4.7-6.3 9.2-6.3v2zm3.1 7.4c-.2.2-.5.2-.8.1-1.1-.9-1.3-1.4-1.9-2.3-1.8 1.9-3.1 2.4-5.5 2.4-2.8 0-5-1.7-5-5.2 0-2.7 1.5-4.5 3.6-5.4 1.8-.8 4.4-.9 6.4-1.1v-.4c0-.8.1-1.8-.4-2.5-.5-.6-1.3-.9-2.1-.9-1.4 0-2.7.7-3 2.2-.1.3-.2.5-.5.5l-2.7-.3c-.2-.1-.5-.2-.4-.6.7-3.5 3.9-4.5 6.7-4.5 1.5 0 3.4.4 4.5 1.5 1.5 1.4 1.3 3.2 1.3 5.2v4.7c0 1.4.6 2 1.1 2.8.2.3.2.6 0 .8-.5.5-1.5 1.3-2 1.8l-.3-.1z"/>
</svg> 